<svg width="24" height="24" viewBox="0 0 24 24" fill="none" xmlns="http://www.w3.org/2000/svg">
<g id="icon_arrow">
<path id="right" d="M9.16211 4.53369C9.48584 4.53369 9.75146 4.6499 9.96729 4.86572L16.334 11.083C16.6162 11.3652 16.7573 11.6558 16.7573 12.0127C16.7573 12.3696 16.6245 12.6685 16.334 12.9424L9.96729 19.168C9.74316 19.3838 9.47754 19.5 9.16211 19.5C8.52295 19.5 8 18.9854 8 18.3462C8 18.0308 8.13281 17.7319 8.36523 17.4995L14.0098 12.0127L8.36523 6.53418C8.13281 6.30176 8 6.00293 8 5.6875C8 5.04834 8.52295 4.53369 9.16211 4.53369Z" fill="#007BFB"/>
</g>
</svg>
