<svg width="24" height="24" viewBox="-4 -4 24 24" fill="none" xmlns="http://www.w3.org/2000/svg">
<g id="icon_arrow">
<path id="right" d="M6.10799 12.9775C6.32381 12.9775 6.5009 12.9001 6.64478 12.7562L10.8892 8.61133C11.0774 8.42318 11.1715 8.22949 11.1715 7.99154C11.1715 7.75358 11.0829 7.55436 10.8892 7.37175L6.64478 3.22135C6.49536 3.07747 6.31828 3 6.10799 3C5.68188 3 5.33325 3.3431 5.33325 3.76921C5.33325 3.97949 5.42179 4.17871 5.57674 4.33366L9.33976 7.99154L5.57674 11.6439C5.42179 11.7988 5.33325 11.998 5.33325 12.2083C5.33325 12.6344 5.68188 12.9775 6.10799 12.9775Z" fill="#007BFB"/>
</g>
</svg>
