<svg width="24" height="24" viewBox="-4 -4 24 24" fill="none" xmlns="http://www.w3.org/2000/svg">
<g id="icon_arrow">
<path id="right" d="M3.02246 6.10805C3.02246 6.32387 3.09993 6.50096 3.24381 6.64484L7.38867 10.8893C7.57682 11.0775 7.77051 11.1715 8.00846 11.1715C8.24642 11.1715 8.44564 11.083 8.62825 10.8893L12.7786 6.64484C12.9225 6.49542 13 6.31834 13 6.10805C13 5.68195 12.6569 5.33331 12.2308 5.33331C12.0205 5.33331 11.8213 5.42185 11.6663 5.5768L8.00846 9.33982L4.35612 5.5768C4.20117 5.42185 4.00195 5.33331 3.79167 5.33331C3.36556 5.33331 3.02246 5.68195 3.02246 6.10805Z" fill="#007BFB"/>
</g>
</svg>
