<svg width="24" height="24" viewBox="-2 -2 24 24" fill="none" xmlns="http://www.w3.org/2000/svg">
<g id="icon_car">
<path id="Icon" d="M15.8334 8.33333V5.16667C15.8334 4.23325 15.8334 3.76654 15.6518 3.41002C15.492 3.09641 15.237 2.84144 14.9234 2.68166C14.5669 2.5 14.1002 2.5 13.1667 2.5H6.83341C5.89999 2.5 5.43328 2.5 5.07676 2.68166C4.76316 2.84144 4.50819 3.09641 4.3484 3.41002C4.16675 3.76654 4.16675 4.23325 4.16675 5.16667V8.33333M4.16675 7.5H1.66675V6.66667M15.8334 7.5H18.3334V6.66667M5.00008 11.25H5.00841M15.0001 11.25H15.0084M5.66675 8.33333H14.3334C15.7335 8.33333 16.4336 8.33333 16.9684 8.60582C17.4388 8.8455 17.8212 9.22795 18.0609 9.69836C18.3334 10.2331 18.3334 10.9332 18.3334 12.3333V15C18.3334 15.7766 18.3334 16.1649 18.2065 16.4711C18.0374 16.8795 17.7129 17.204 17.3046 17.3731C16.9983 17.5 16.61 17.5 15.8334 17.5H15.3334C15.0237 17.5 14.8689 17.5 14.7394 17.4795C14.0262 17.3665 13.4669 16.8072 13.3539 16.0941C13.3334 15.9645 13.3334 15.8097 13.3334 15.5C13.3334 15.4226 13.3334 15.3839 13.3283 15.3515C13.3 15.1732 13.1602 15.0334 12.9819 15.0051C12.9495 15 12.9108 15 12.8334 15H7.16675C7.08933 15 7.05062 15 7.01823 15.0051C6.83995 15.0334 6.70012 15.1732 6.67188 15.3515C6.66675 15.3839 6.66675 15.4226 6.66675 15.5C6.66675 15.8097 6.66675 15.9645 6.64623 16.0941C6.53328 16.8072 5.97396 17.3665 5.26081 17.4795C5.13125 17.5 4.97642 17.5 4.66675 17.5H4.16675C3.39018 17.5 3.00189 17.5 2.69561 17.3731C2.28723 17.204 1.96277 16.8795 1.79362 16.4711C1.66675 16.1649 1.66675 15.7766 1.66675 15V12.3333C1.66675 10.9332 1.66675 10.2331 1.93923 9.69836C2.17892 9.22795 2.56137 8.8455 3.03177 8.60582C3.56655 8.33333 4.26662 8.33333 5.66675 8.33333ZM5.41675 11.25C5.41675 11.4801 5.2302 11.6667 5.00008 11.6667C4.76996 11.6667 4.58341 11.4801 4.58341 11.25C4.58341 11.0199 4.76996 10.8333 5.00008 10.8333C5.2302 10.8333 5.41675 11.0199 5.41675 11.25ZM15.4167 11.25C15.4167 11.4801 15.2302 11.6667 15.0001 11.6667C14.77 11.6667 14.5834 11.4801 14.5834 11.25C14.5834 11.0199 14.77 10.8333 15.0001 10.8333C15.2302 10.8333 15.4167 11.0199 15.4167 11.25Z" stroke="#007BFB" stroke-width="1.6" stroke-linecap="round" stroke-linejoin="round"/>
</g>
</svg>
