<svg width="100" height="100" viewBox="0 0 100 100" fill="none" xmlns="http://www.w3.org/2000/svg">
<g id="icon_detector_backgr">
<path id="Icon" d="M43.636 63.364C40.1213 59.8492 40.1213 54.1508 43.636 50.636C47.1508 47.1213 52.8492 47.1213 56.364 50.636C59.8787 54.1508 59.8787 59.8492 56.364 63.364M30.9081 76.0919C20.364 65.5477 20.364 48.4523 30.9081 37.9081C41.4523 27.364 58.5477 27.364 69.0919 37.9081C79.636 48.4523 79.636 65.5477 69.0919 76.0919M18.1802 88.8198C0.606603 71.2462 0.606601 42.7538 18.1802 25.1802C35.7538 7.6066 64.2462 7.6066 81.8198 25.1802C99.3934 42.7538 99.3934 71.2462 81.8198 88.8198" stroke="#BCC1CD" stroke-width="5" stroke-linecap="round" stroke-linejoin="round"/>
</g>
</svg>
