<svg width="100" height="100" viewBox="0 0 100 100" fill="none" xmlns="http://www.w3.org/2000/svg">
<g id="icon_camera_backgr">
<g id="Icon">
<path d="M94.9998 36.6913C94.9998 33.9651 94.9998 32.602 94.4607 31.9708C93.9929 31.4231 93.2912 31.1325 92.5732 31.189C91.7457 31.2541 90.7819 32.218 88.8542 34.1457L72.4998 50.5001L88.8542 66.8545C90.7819 68.7822 91.7457 69.746 92.5732 69.8112C93.2912 69.8677 93.9929 69.577 94.4607 69.0294C94.9998 68.3982 94.9998 67.0351 94.9998 64.3089V36.6913Z" stroke="#BCC1CD" stroke-width="5" stroke-linecap="round" stroke-linejoin="round"/>
<path d="M4.99976 40.6001C4.99976 33.0394 4.99976 29.259 6.47117 26.3712C7.76546 23.831 9.8307 21.7658 12.3709 20.4715C15.2587 19.0001 19.039 19.0001 26.5998 19.0001H50.8998C58.4605 19.0001 62.2408 19.0001 65.1286 20.4715C67.6688 21.7658 69.7341 23.831 71.0283 26.3712C72.4998 29.259 72.4998 33.0394 72.4998 40.6001V60.4001C72.4998 67.9608 72.4998 71.7412 71.0283 74.629C69.7341 77.1691 67.6688 79.2344 65.1286 80.5287C62.2408 82.0001 58.4605 82.0001 50.8998 82.0001H26.5998C19.039 82.0001 15.2587 82.0001 12.3709 80.5287C9.8307 79.2344 7.76546 77.1691 6.47117 74.629C4.99976 71.7412 4.99976 67.9608 4.99976 60.4001V40.6001Z" stroke="#BCC1CD" stroke-width="5" stroke-linecap="round" stroke-linejoin="round"/>
</g>
</g>
</svg>
