<svg width="24" height="24" viewBox="0 0 24 24" fill="none" xmlns="http://www.w3.org/2000/svg">
<g id="icon_1_alot">
<path id="Icon" d="M12.2571 3H5.74286C4.78277 3 4.30272 3 3.93602 3.18685C3.61345 3.3512 3.3512 3.61345 3.18685 3.93602C3 4.30272 3 4.78277 3 5.74286V12.2571C3 13.2172 3 13.6973 3.18685 14.064C3.3512 14.3865 3.61345 14.6488 3.93602 14.8132C4.30272 15 4.78277 15 5.74286 15H12.2571C13.2172 15 13.6973 15 14.064 14.8132C14.3865 14.6488 14.6488 14.3865 14.8132 14.064C15 13.6973 15 13.2172 15 12.2571V5.74286C15 4.78277 15 4.30272 14.8132 3.93602C14.6488 3.61345 14.3865 3.3512 14.064 3.18685C13.6973 3 13.2172 3 12.2571 3Z" stroke="#007BFB" stroke-width="2" stroke-linecap="round" stroke-linejoin="round"/>
<path id="Icon_2" d="M20.5159 3H19.3664C19.1969 3 19.1122 3 19.0475 3.03297C18.9906 3.06198 18.9443 3.10826 18.9153 3.16518C18.8823 3.22989 18.8823 3.31461 18.8823 3.48403V4.63361C18.8823 4.80304 18.8823 4.88776 18.9153 4.95247C18.9443 5.00939 18.9906 5.05567 19.0475 5.08467C19.1122 5.11765 19.1969 5.11765 19.3664 5.11765H20.5159C20.6854 5.11765 20.7701 5.11765 20.8348 5.08467C20.8917 5.05567 20.938 5.00939 20.967 4.95247C21 4.88776 21 4.80304 21 4.63361V3.48403C21 3.31461 21 3.22989 20.967 3.16518C20.938 3.10826 20.8917 3.06198 20.8348 3.03297C20.7701 3 20.6854 3 20.5159 3Z" stroke="#007BFB" stroke-width="2" stroke-linecap="round" stroke-linejoin="round"/>
<g id="Group 2001">
<path id="Icon_3" d="M20.5159 8H19.3664C19.1969 8 19.1122 8 19.0475 8.03297C18.9906 8.06198 18.9443 8.10826 18.9153 8.16518C18.8823 8.22989 18.8823 8.31461 18.8823 8.48403V9.63361C18.8823 9.80304 18.8823 9.88776 18.9153 9.95247C18.9443 10.0094 18.9906 10.0557 19.0475 10.0847C19.1122 10.1176 19.1969 10.1176 19.3664 10.1176H20.5159C20.6854 10.1176 20.7701 10.1176 20.8348 10.0847C20.8917 10.0557 20.938 10.0094 20.967 9.95247C21 9.88776 21 9.80304 21 9.63361V8.48403C21 8.31461 21 8.22989 20.967 8.16518C20.938 8.10826 20.8917 8.06198 20.8348 8.03297C20.7701 8 20.6854 8 20.5159 8Z" stroke="#007BFB" stroke-width="2" stroke-linecap="round" stroke-linejoin="round"/>
</g>
<path id="Icon_4" d="M20.5159 13H19.3664C19.1969 13 19.1122 13 19.0475 13.033C18.9906 13.062 18.9443 13.1083 18.9153 13.1652C18.8823 13.2299 18.8823 13.3146 18.8823 13.484V14.6336C18.8823 14.803 18.8823 14.8878 18.9153 14.9525C18.9443 15.0094 18.9906 15.0557 19.0475 15.0847C19.1122 15.1176 19.1969 15.1176 19.3664 15.1176H20.5159C20.6854 15.1176 20.7701 15.1176 20.8348 15.0847C20.8917 15.0557 20.938 15.0094 20.967 14.9525C21 14.8878 21 14.803 21 14.6336V13.484C21 13.3146 21 13.2299 20.967 13.1652C20.938 13.1083 20.8917 13.062 20.8348 13.033C20.7701 13 20.6854 13 20.5159 13Z" stroke="#007BFB" stroke-width="2" stroke-linecap="round" stroke-linejoin="round"/>
<g id="Group 2003">
<path id="Icon_5" d="M4.63361 19H3.48403C3.31461 19 3.22989 19 3.16518 19.033C3.10826 19.062 3.06198 19.1083 3.03297 19.1652C3 19.2299 3 19.3146 3 19.484V20.6336C3 20.803 3 20.8878 3.03297 20.9525C3.06198 21.0094 3.10826 21.0557 3.16518 21.0847C3.22989 21.1176 3.31461 21.1176 3.48403 21.1176H4.63361C4.80304 21.1176 4.88776 21.1176 4.95247 21.0847C5.00939 21.0557 5.05567 21.0094 5.08467 20.9525C5.11765 20.8878 5.11765 20.803 5.11765 20.6336V19.484C5.11765 19.3146 5.11765 19.2299 5.08467 19.1652C5.05567 19.1083 5.00939 19.062 4.95247 19.033C4.88776 19 4.80304 19 4.63361 19Z" stroke="#007BFB" stroke-width="2" stroke-linecap="round" stroke-linejoin="round"/>
<path id="Icon_6" d="M9.92756 19H8.77798C8.60855 19 8.52384 19 8.45912 19.033C8.4022 19.062 8.35592 19.1083 8.32692 19.1652C8.29395 19.2299 8.29395 19.3146 8.29395 19.484V20.6336C8.29395 20.803 8.29395 20.8878 8.32692 20.9525C8.35592 21.0094 8.4022 21.0557 8.45912 21.0847C8.52384 21.1176 8.60855 21.1176 8.77798 21.1176H9.92756C10.097 21.1176 10.1817 21.1176 10.2464 21.0847C10.3033 21.0557 10.3496 21.0094 10.3786 20.9525C10.4116 20.8878 10.4116 20.803 10.4116 20.6336V19.484C10.4116 19.3146 10.4116 19.2299 10.3786 19.1652C10.3496 19.1083 10.3033 19.062 10.2464 19.033C10.1817 19 10.097 19 9.92756 19Z" stroke="#007BFB" stroke-width="2" stroke-linecap="round" stroke-linejoin="round"/>
<path id="Icon_7" d="M15.222 19H14.0724C13.903 19 13.8183 19 13.7536 19.033C13.6966 19.062 13.6504 19.1083 13.6214 19.1652C13.5884 19.2299 13.5884 19.3146 13.5884 19.484V20.6336C13.5884 20.803 13.5884 20.8878 13.6214 20.9525C13.6504 21.0094 13.6966 21.0557 13.7536 21.0847C13.8183 21.1176 13.903 21.1176 14.0724 21.1176H15.222C15.3914 21.1176 15.4761 21.1176 15.5408 21.0847C15.5978 21.0557 15.644 21.0094 15.6731 20.9525C15.706 20.8878 15.706 20.803 15.706 20.6336V19.484C15.706 19.3146 15.706 19.2299 15.6731 19.1652C15.644 19.1083 15.5978 19.062 15.5408 19.033C15.4761 19 15.3914 19 15.222 19Z" stroke="#007BFB" stroke-width="2" stroke-linecap="round" stroke-linejoin="round"/>
<path id="Icon_8" d="M20.5159 19H19.3664C19.1969 19 19.1122 19 19.0475 19.033C18.9906 19.062 18.9443 19.1083 18.9153 19.1652C18.8823 19.2299 18.8823 19.3146 18.8823 19.484V20.6336C18.8823 20.803 18.8823 20.8878 18.9153 20.9525C18.9443 21.0094 18.9906 21.0557 19.0475 21.0847C19.1122 21.1176 19.1969 21.1176 19.3664 21.1176H20.5159C20.6854 21.1176 20.7701 21.1176 20.8348 21.0847C20.8917 21.0557 20.938 21.0094 20.967 20.9525C21 20.8878 21 20.803 21 20.6336V19.484C21 19.3146 21 19.2299 20.967 19.1652C20.938 19.1083 20.8917 19.062 20.8348 19.033C20.7701 19 20.6854 19 20.5159 19Z" stroke="#007BFB" stroke-width="2" stroke-linecap="round" stroke-linejoin="round"/>
</g>
</g>
</svg>
