<svg width="24" height="24" viewBox="0 0 24 24" fill="none" xmlns="http://www.w3.org/2000/svg">
<g id="icon_3x3">
<g id="Group 2004">
<g id="Group 2000">
<path id="Icon" d="M4.63361 3H3.48403C3.31461 3 3.22989 3 3.16518 3.03297C3.10826 3.06198 3.06198 3.10826 3.03297 3.16518C3 3.22989 3 3.31461 3 3.48403V4.63361C3 4.80304 3 4.88776 3.03297 4.95247C3.06198 5.00939 3.10826 5.05567 3.16518 5.08467C3.22989 5.11765 3.31461 5.11765 3.48403 5.11765H4.63361C4.80304 5.11765 4.88776 5.11765 4.95247 5.08467C5.00939 5.05567 5.05567 5.00939 5.08467 4.95247C5.11765 4.88776 5.11765 4.80304 5.11765 4.63361V3.48403C5.11765 3.31461 5.11765 3.22989 5.08467 3.16518C5.05567 3.10826 5.00939 3.06198 4.95247 3.03297C4.88776 3 4.80304 3 4.63361 3Z" stroke="#007BFB" stroke-width="2" stroke-linecap="round" stroke-linejoin="round"/>
<path id="Icon_2" d="M9.92756 3H8.77798C8.60855 3 8.52384 3 8.45912 3.03297C8.4022 3.06198 8.35592 3.10826 8.32692 3.16518C8.29395 3.22989 8.29395 3.31461 8.29395 3.48403V4.63361C8.29395 4.80304 8.29395 4.88776 8.32692 4.95247C8.35592 5.00939 8.4022 5.05567 8.45912 5.08467C8.52384 5.11765 8.60855 5.11765 8.77798 5.11765H9.92756C10.097 5.11765 10.1817 5.11765 10.2464 5.08467C10.3033 5.05567 10.3496 5.00939 10.3786 4.95247C10.4116 4.88776 10.4116 4.80304 10.4116 4.63361V3.48403C10.4116 3.31461 10.4116 3.22989 10.3786 3.16518C10.3496 3.10826 10.3033 3.06198 10.2464 3.03297C10.1817 3 10.097 3 9.92756 3Z" stroke="#007BFB" stroke-width="2" stroke-linecap="round" stroke-linejoin="round"/>
<path id="Icon_3" d="M15.222 3H14.0724C13.903 3 13.8183 3 13.7536 3.03297C13.6966 3.06198 13.6504 3.10826 13.6214 3.16518C13.5884 3.22989 13.5884 3.31461 13.5884 3.48403V4.63361C13.5884 4.80304 13.5884 4.88776 13.6214 4.95247C13.6504 5.00939 13.6966 5.05567 13.7536 5.08467C13.8183 5.11765 13.903 5.11765 14.0724 5.11765H15.222C15.3914 5.11765 15.4761 5.11765 15.5408 5.08467C15.5978 5.05567 15.644 5.00939 15.6731 4.95247C15.706 4.88776 15.706 4.80304 15.706 4.63361V3.48403C15.706 3.31461 15.706 3.22989 15.6731 3.16518C15.644 3.10826 15.5978 3.06198 15.5408 3.03297C15.4761 3 15.3914 3 15.222 3Z" stroke="#007BFB" stroke-width="2" stroke-linecap="round" stroke-linejoin="round"/>
<path id="Icon_4" d="M20.5159 3H19.3664C19.1969 3 19.1122 3 19.0475 3.03297C18.9906 3.06198 18.9443 3.10826 18.9153 3.16518C18.8823 3.22989 18.8823 3.31461 18.8823 3.48403V4.63361C18.8823 4.80304 18.8823 4.88776 18.9153 4.95247C18.9443 5.00939 18.9906 5.05567 19.0475 5.08467C19.1122 5.11765 19.1969 5.11765 19.3664 5.11765H20.5159C20.6854 5.11765 20.7701 5.11765 20.8348 5.08467C20.8917 5.05567 20.938 5.00939 20.967 4.95247C21 4.88776 21 4.80304 21 4.63361V3.48403C21 3.31461 21 3.22989 20.967 3.16518C20.938 3.10826 20.8917 3.06198 20.8348 3.03297C20.7701 3 20.6854 3 20.5159 3Z" stroke="#007BFB" stroke-width="2" stroke-linecap="round" stroke-linejoin="round"/>
</g>
<g id="Group 2001">
<path id="Icon_5" d="M4.63361 8H3.48403C3.31461 8 3.22989 8 3.16518 8.03297C3.10826 8.06198 3.06198 8.10826 3.03297 8.16518C3 8.22989 3 8.31461 3 8.48403V9.63361C3 9.80304 3 9.88776 3.03297 9.95247C3.06198 10.0094 3.10826 10.0557 3.16518 10.0847C3.22989 10.1176 3.31461 10.1176 3.48403 10.1176H4.63361C4.80304 10.1176 4.88776 10.1176 4.95247 10.0847C5.00939 10.0557 5.05567 10.0094 5.08467 9.95247C5.11765 9.88776 5.11765 9.80304 5.11765 9.63361V8.48403C5.11765 8.31461 5.11765 8.22989 5.08467 8.16518C5.05567 8.10826 5.00939 8.06198 4.95247 8.03297C4.88776 8 4.80304 8 4.63361 8Z" stroke="#007BFB" stroke-width="2" stroke-linecap="round" stroke-linejoin="round"/>
<path id="Icon_6" d="M9.92756 8H8.77798C8.60855 8 8.52384 8 8.45912 8.03297C8.4022 8.06198 8.35592 8.10826 8.32692 8.16518C8.29395 8.22989 8.29395 8.31461 8.29395 8.48403V9.63361C8.29395 9.80304 8.29395 9.88776 8.32692 9.95247C8.35592 10.0094 8.4022 10.0557 8.45912 10.0847C8.52384 10.1176 8.60855 10.1176 8.77798 10.1176H9.92756C10.097 10.1176 10.1817 10.1176 10.2464 10.0847C10.3033 10.0557 10.3496 10.0094 10.3786 9.95247C10.4116 9.88776 10.4116 9.80304 10.4116 9.63361V8.48403C10.4116 8.31461 10.4116 8.22989 10.3786 8.16518C10.3496 8.10826 10.3033 8.06198 10.2464 8.03297C10.1817 8 10.097 8 9.92756 8Z" stroke="#007BFB" stroke-width="2" stroke-linecap="round" stroke-linejoin="round"/>
<path id="Icon_7" d="M15.222 8H14.0724C13.903 8 13.8183 8 13.7536 8.03297C13.6966 8.06198 13.6504 8.10826 13.6214 8.16518C13.5884 8.22989 13.5884 8.31461 13.5884 8.48403V9.63361C13.5884 9.80304 13.5884 9.88776 13.6214 9.95247C13.6504 10.0094 13.6966 10.0557 13.7536 10.0847C13.8183 10.1176 13.903 10.1176 14.0724 10.1176H15.222C15.3914 10.1176 15.4761 10.1176 15.5408 10.0847C15.5978 10.0557 15.644 10.0094 15.6731 9.95247C15.706 9.88776 15.706 9.80304 15.706 9.63361V8.48403C15.706 8.31461 15.706 8.22989 15.6731 8.16518C15.644 8.10826 15.5978 8.06198 15.5408 8.03297C15.4761 8 15.3914 8 15.222 8Z" stroke="#007BFB" stroke-width="2" stroke-linecap="round" stroke-linejoin="round"/>
<path id="Icon_8" d="M20.5159 8H19.3664C19.1969 8 19.1122 8 19.0475 8.03297C18.9906 8.06198 18.9443 8.10826 18.9153 8.16518C18.8823 8.22989 18.8823 8.31461 18.8823 8.48403V9.63361C18.8823 9.80304 18.8823 9.88776 18.9153 9.95247C18.9443 10.0094 18.9906 10.0557 19.0475 10.0847C19.1122 10.1176 19.1969 10.1176 19.3664 10.1176H20.5159C20.6854 10.1176 20.7701 10.1176 20.8348 10.0847C20.8917 10.0557 20.938 10.0094 20.967 9.95247C21 9.88776 21 9.80304 21 9.63361V8.48403C21 8.31461 21 8.22989 20.967 8.16518C20.938 8.10826 20.8917 8.06198 20.8348 8.03297C20.7701 8 20.6854 8 20.5159 8Z" stroke="#007BFB" stroke-width="2" stroke-linecap="round" stroke-linejoin="round"/>
</g>
<g id="Group 2002">
<path id="Icon_9" d="M4.63361 13H3.48403C3.31461 13 3.22989 13 3.16518 13.033C3.10826 13.062 3.06198 13.1083 3.03297 13.1652C3 13.2299 3 13.3146 3 13.484V14.6336C3 14.803 3 14.8878 3.03297 14.9525C3.06198 15.0094 3.10826 15.0557 3.16518 15.0847C3.22989 15.1176 3.31461 15.1176 3.48403 15.1176H4.63361C4.80304 15.1176 4.88776 15.1176 4.95247 15.0847C5.00939 15.0557 5.05567 15.0094 5.08467 14.9525C5.11765 14.8878 5.11765 14.803 5.11765 14.6336V13.484C5.11765 13.3146 5.11765 13.2299 5.08467 13.1652C5.05567 13.1083 5.00939 13.062 4.95247 13.033C4.88776 13 4.80304 13 4.63361 13Z" stroke="#007BFB" stroke-width="2" stroke-linecap="round" stroke-linejoin="round"/>
<path id="Icon_10" d="M9.92756 13H8.77798C8.60855 13 8.52384 13 8.45912 13.033C8.4022 13.062 8.35592 13.1083 8.32692 13.1652C8.29395 13.2299 8.29395 13.3146 8.29395 13.484V14.6336C8.29395 14.803 8.29395 14.8878 8.32692 14.9525C8.35592 15.0094 8.4022 15.0557 8.45912 15.0847C8.52384 15.1176 8.60855 15.1176 8.77798 15.1176H9.92756C10.097 15.1176 10.1817 15.1176 10.2464 15.0847C10.3033 15.0557 10.3496 15.0094 10.3786 14.9525C10.4116 14.8878 10.4116 14.803 10.4116 14.6336V13.484C10.4116 13.3146 10.4116 13.2299 10.3786 13.1652C10.3496 13.1083 10.3033 13.062 10.2464 13.033C10.1817 13 10.097 13 9.92756 13Z" stroke="#007BFB" stroke-width="2" stroke-linecap="round" stroke-linejoin="round"/>
<path id="Icon_11" d="M15.222 13H14.0724C13.903 13 13.8183 13 13.7536 13.033C13.6966 13.062 13.6504 13.1083 13.6214 13.1652C13.5884 13.2299 13.5884 13.3146 13.5884 13.484V14.6336C13.5884 14.803 13.5884 14.8878 13.6214 14.9525C13.6504 15.0094 13.6966 15.0557 13.7536 15.0847C13.8183 15.1176 13.903 15.1176 14.0724 15.1176H15.222C15.3914 15.1176 15.4761 15.1176 15.5408 15.0847C15.5978 15.0557 15.644 15.0094 15.6731 14.9525C15.706 14.8878 15.706 14.803 15.706 14.6336V13.484C15.706 13.3146 15.706 13.2299 15.6731 13.1652C15.644 13.1083 15.5978 13.062 15.5408 13.033C15.4761 13 15.3914 13 15.222 13Z" stroke="#007BFB" stroke-width="2" stroke-linecap="round" stroke-linejoin="round"/>
<path id="Icon_12" d="M20.5159 13H19.3664C19.1969 13 19.1122 13 19.0475 13.033C18.9906 13.062 18.9443 13.1083 18.9153 13.1652C18.8823 13.2299 18.8823 13.3146 18.8823 13.484V14.6336C18.8823 14.803 18.8823 14.8878 18.9153 14.9525C18.9443 15.0094 18.9906 15.0557 19.0475 15.0847C19.1122 15.1176 19.1969 15.1176 19.3664 15.1176H20.5159C20.6854 15.1176 20.7701 15.1176 20.8348 15.0847C20.8917 15.0557 20.938 15.0094 20.967 14.9525C21 14.8878 21 14.803 21 14.6336V13.484C21 13.3146 21 13.2299 20.967 13.1652C20.938 13.1083 20.8917 13.062 20.8348 13.033C20.7701 13 20.6854 13 20.5159 13Z" stroke="#007BFB" stroke-width="2" stroke-linecap="round" stroke-linejoin="round"/>
</g>
<g id="Group 2003">
<path id="Icon_13" d="M4.63361 18H3.48403C3.31461 18 3.22989 18 3.16518 18.033C3.10826 18.062 3.06198 18.1083 3.03297 18.1652C3 18.2299 3 18.3146 3 18.484V19.6336C3 19.803 3 19.8878 3.03297 19.9525C3.06198 20.0094 3.10826 20.0557 3.16518 20.0847C3.22989 20.1176 3.31461 20.1176 3.48403 20.1176H4.63361C4.80304 20.1176 4.88776 20.1176 4.95247 20.0847C5.00939 20.0557 5.05567 20.0094 5.08467 19.9525C5.11765 19.8878 5.11765 19.803 5.11765 19.6336V18.484C5.11765 18.3146 5.11765 18.2299 5.08467 18.1652C5.05567 18.1083 5.00939 18.062 4.95247 18.033C4.88776 18 4.80304 18 4.63361 18Z" stroke="#007BFB" stroke-width="2" stroke-linecap="round" stroke-linejoin="round"/>
<path id="Icon_14" d="M9.92756 18H8.77798C8.60855 18 8.52384 18 8.45912 18.033C8.4022 18.062 8.35592 18.1083 8.32692 18.1652C8.29395 18.2299 8.29395 18.3146 8.29395 18.484V19.6336C8.29395 19.803 8.29395 19.8878 8.32692 19.9525C8.35592 20.0094 8.4022 20.0557 8.45912 20.0847C8.52384 20.1176 8.60855 20.1176 8.77798 20.1176H9.92756C10.097 20.1176 10.1817 20.1176 10.2464 20.0847C10.3033 20.0557 10.3496 20.0094 10.3786 19.9525C10.4116 19.8878 10.4116 19.803 10.4116 19.6336V18.484C10.4116 18.3146 10.4116 18.2299 10.3786 18.1652C10.3496 18.1083 10.3033 18.062 10.2464 18.033C10.1817 18 10.097 18 9.92756 18Z" stroke="#007BFB" stroke-width="2" stroke-linecap="round" stroke-linejoin="round"/>
<path id="Icon_15" d="M15.222 18H14.0724C13.903 18 13.8183 18 13.7536 18.033C13.6966 18.062 13.6504 18.1083 13.6214 18.1652C13.5884 18.2299 13.5884 18.3146 13.5884 18.484V19.6336C13.5884 19.803 13.5884 19.8878 13.6214 19.9525C13.6504 20.0094 13.6966 20.0557 13.7536 20.0847C13.8183 20.1176 13.903 20.1176 14.0724 20.1176H15.222C15.3914 20.1176 15.4761 20.1176 15.5408 20.0847C15.5978 20.0557 15.644 20.0094 15.6731 19.9525C15.706 19.8878 15.706 19.803 15.706 19.6336V18.484C15.706 18.3146 15.706 18.2299 15.6731 18.1652C15.644 18.1083 15.5978 18.062 15.5408 18.033C15.4761 18 15.3914 18 15.222 18Z" stroke="#007BFB" stroke-width="2" stroke-linecap="round" stroke-linejoin="round"/>
<path id="Icon_16" d="M20.5159 18H19.3664C19.1969 18 19.1122 18 19.0475 18.033C18.9906 18.062 18.9443 18.1083 18.9153 18.1652C18.8823 18.2299 18.8823 18.3146 18.8823 18.484V19.6336C18.8823 19.803 18.8823 19.8878 18.9153 19.9525C18.9443 20.0094 18.9906 20.0557 19.0475 20.0847C19.1122 20.1176 19.1969 20.1176 19.3664 20.1176H20.5159C20.6854 20.1176 20.7701 20.1176 20.8348 20.0847C20.8917 20.0557 20.938 20.0094 20.967 19.9525C21 19.8878 21 19.803 21 19.6336V18.484C21 18.3146 21 18.2299 20.967 18.1652C20.938 18.1083 20.8917 18.062 20.8348 18.033C20.7701 18 20.6854 18 20.5159 18Z" stroke="#007BFB" stroke-width="2" stroke-linecap="round" stroke-linejoin="round"/>
</g>
</g>
</g>
</svg>
