<svg width="40" height="40" viewBox="0 0 40 40" fill="none" xmlns="http://www.w3.org/2000/svg">
<g id="icon_video_off">
<path id="Icon" d="M8.33325 8.33337C5.57183 8.33337 3.33325 10.572 3.33325 13.3334V26.6667C3.33325 29.4281 5.57183 31.6667 8.33325 31.6667H23.3333C25.5877 31.6667 27.4936 30.1747 28.1175 28.1242M28.3333 20L34.3904 13.9428C35.1044 13.2289 35.4614 12.8719 35.7679 12.8478C36.0338 12.8269 36.2937 12.9345 36.4669 13.1373C36.6666 13.3711 36.6666 13.876 36.6666 14.8857V25.1144C36.6666 26.1241 36.6666 26.629 36.4669 26.8627C36.2937 27.0656 36.0338 27.1732 35.7679 27.1523C35.4614 27.1282 35.1044 26.7712 34.3904 26.0572L28.3333 20ZM28.3333 20V16.3334C28.3333 13.5331 28.3333 12.133 27.7883 11.0634C27.3089 10.1226 26.544 9.35771 25.6032 8.87834C24.5336 8.33337 23.1335 8.33337 20.3333 8.33337H15.8333M3.33325 3.33337L36.6666 36.6667" stroke="#BCC1CD" stroke-width="3" stroke-linecap="round" stroke-linejoin="round"/>
</g>
</svg>
