<svg width="24" height="24" viewBox="-2 -2 24 24" fill="none" xmlns="http://www.w3.org/2000/svg">
<path d="M9.72197 14.5657L11.4816 18.2315C11.6568 18.5972 11.9711 18.879 12.3539 19.0132C12.7293 19.1455 13.1417 19.1258 13.5024 18.9589H13.5036L13.5241 18.949C13.8897 18.7731 14.1707 18.4596 14.3056 18.0762L14.3057 18.0761C14.4398 17.6934 14.4167 17.2732 14.2416 16.9069L14.2416 16.9067L12.2579 12.7749V10.8206L13.1061 11.445C13.7844 11.9448 14.7394 11.8012 15.2424 11.1248L15.2425 11.1247C15.485 10.7976 15.5875 10.3877 15.5269 9.98538C15.4672 9.58306 15.2494 9.22084 14.9213 8.97986L9.72197 14.5657ZM9.72197 14.5657L7.96226 18.2316L7.96221 18.2317C7.78637 18.597 7.47303 18.8789 7.08942 19.0131C6.71389 19.1456 6.30222 19.1258 5.9408 18.9589H5.93955L5.91899 18.949C5.55344 18.7731 5.27245 18.4596 5.13751 18.0762L5.13747 18.0761C5.00336 17.6934 5.02645 17.2732 5.20149 16.9069L5.20157 16.9067L7.39589 12.3357C7.24906 12.0355 7.17018 11.7031 7.17018 11.3623V9.85745M9.72197 14.5657L7.17018 9.85745M7.17018 9.85745L6.96141 10.0312L7.17018 9.85745ZM9.93363 12.8873L12.3088 17.8349L9.93363 12.8873ZM9.93363 12.8873C9.93363 12.8873 9.82346 12.655 9.56318 12.655H9.38035C9.03784 12.655 8.7089 12.5193 8.46619 12.2766C8.22348 12.0338 8.08775 11.7049 8.08775 11.3624V8.77161C8.08775 8.61273 7.99594 8.46901 7.85224 8.40116M9.93363 12.8873L10.0238 12.8441L10.0236 12.8437L10.023 12.8425L10.0214 12.8392L10.0159 12.8289C10.0112 12.8205 10.0046 12.8092 9.99578 12.7959C9.97831 12.7695 9.9519 12.7344 9.91552 12.6993C9.84231 12.6285 9.72603 12.555 9.56318 12.555H9.38035C9.06429 12.555 8.76081 12.4298 8.53691 12.2059C8.313 11.9819 8.18775 11.6785 8.18775 11.3624V8.77161C8.18775 8.57371 8.07332 8.39496 7.89494 8.31073L7.89453 8.31054C7.71549 8.22699 7.50494 8.25499 7.35325 8.38089L7.35313 8.38099L6.12681 9.40213L6.12627 9.40259C6.01163 9.49944 5.9439 9.64214 5.9439 9.79275V11.4302C5.9439 11.6997 5.73655 11.9206 5.47243 11.9417M9.93363 12.8873L10.0239 12.8444M9.93363 12.8873L10.0239 12.8444M7.85224 8.40116L13.3243 17.3471L11.2909 13.1109L11.2909 13.1108C11.2584 13.0429 11.2404 12.9675 11.2404 12.8912V7.73762C11.2404 7.44244 11.1232 7.15889 10.9144 6.94927C10.7056 6.74054 10.4221 6.62328 10.126 6.62328H8.12188C8.10524 6.63245 8.08739 6.64116 8.06843 6.64864L4.91756 9.02487V11.4301C4.91756 11.6996 5.12489 11.9206 5.389 11.9417H5.47243M7.85224 8.40116C7.70853 8.33409 7.53928 8.35645 7.41712 8.45784L6.1908 9.47897C6.09819 9.55722 6.0439 9.67218 6.0439 9.79275V11.4302C6.0439 11.7536 5.79396 12.0185 5.47622 12.0417M7.85224 8.40116L5.47622 12.0417M5.47243 11.9417C5.47127 11.9418 5.47011 11.9419 5.46895 11.9419L5.47622 12.0417M5.47243 11.9417H5.47622V12.0417M10.0239 12.8444L12.399 17.7916L12.399 17.7918C12.4578 17.9148 12.5627 18.0088 12.6906 18.0535L12.6911 18.0536C12.8164 18.098 12.9543 18.0913 13.0757 18.0356C13.0795 18.0334 13.0833 18.0314 13.0872 18.0298C13.2078 17.9707 13.3007 17.8666 13.3458 17.7395C13.3905 17.611 13.3831 17.4701 13.3244 17.3473L10.0239 12.8444ZM6.7522 18.0534L6.75263 18.0533C6.88057 18.0086 6.98557 17.9146 7.04524 17.7912L9.07947 13.5515C8.73484 13.5042 8.40622 13.3759 8.12092 13.1781L6.11973 17.3469L6.7522 18.0534ZM6.7522 18.0534C6.63073 18.0964 6.4977 18.0915 6.37996 18.0406M6.7522 18.0534L6.37996 18.0406M6.37996 18.0406L6.36007 18.0311C6.23706 17.9723 6.14304 17.8675 6.09838 17.7395L6.09823 17.7391C6.05293 17.6112 6.06078 17.4703 6.11967 17.3471L6.37996 18.0406ZM14.9212 8.97978L12.0818 6.88836C11.9759 6.64537 11.8248 6.42161 11.6339 6.2299L11.6338 6.22976C11.2342 5.83013 10.6914 5.60566 10.126 5.60566H8.10369C7.93886 5.60566 7.70941 5.6451 7.55958 5.7584L7.55965 5.75835L7.61986 5.83819L7.55953 5.75844L14.9212 8.97978ZM5.4307 12.8593L5.43392 12.9592H5.43393L5.43396 12.9592L5.43405 12.9592L5.43441 12.9592L5.43574 12.9591L5.44072 12.959L5.45875 12.9583C5.47386 12.9577 5.49463 12.9569 5.5172 12.9557C5.56033 12.9536 5.61615 12.9502 5.64923 12.9455C5.6493 12.9455 5.64937 12.9455 5.64943 12.9454L5.63509 12.8465C6.32808 12.7475 6.86141 12.1511 6.86141 11.4301L5.4307 12.8593ZM14.4397 10.4987L14.4249 10.5185C14.2566 10.745 13.9373 10.7932 13.7094 10.6254L12.2579 9.55681L12.258 8.28185L14.3181 9.79879C14.3181 9.79881 14.3181 9.79882 14.3181 9.79883C14.4278 9.87973 14.5012 10.0014 14.5212 10.1362C14.5401 10.2632 14.5111 10.3919 14.4397 10.4987ZM10.3385 0.9C9.041 0.9 7.98781 1.95313 7.98781 3.2507C7.98781 4.54827 9.04094 5.6014 10.3385 5.6014C11.6361 5.6014 12.6892 4.54827 12.6892 3.2507C12.6892 1.95313 11.6361 0.9 10.3385 0.9ZM10.3385 1.91755C11.0745 1.91755 11.6716 2.51467 11.6716 3.25064C11.6716 3.98661 11.0745 4.58374 10.3385 4.58374C9.60254 4.58374 9.00541 3.98661 9.00541 3.25064C9.00541 2.51467 9.60254 1.91755 10.3385 1.91755Z" fill="#007BFB" stroke="#007BFB" stroke-width="0.2"/>
</svg>
