<svg width="50" height="50" viewBox="-11 -11 50 50" fill="none" xmlns="http://www.w3.org/2000/svg">
<g id="play">
<path id="Icon" d="M7 4.78668C7 3.51034 7 2.87216 7.25673 2.52038C7.48038 2.21391 7.82223 2.02427 8.19229 2.00136C8.61707 1.97507 9.12931 2.32907 10.1538 3.03706L23.486 12.2504C24.3325 12.8354 24.7558 13.1279 24.9033 13.4966C25.0322 13.8189 25.0322 14.1811 24.9033 14.5034C24.7558 14.8721 24.3325 15.1646 23.486 15.7496L10.1538 24.9629C9.12931 25.6709 8.61707 26.0249 8.19229 25.9986C7.82223 25.9757 7.48038 25.7861 7.25673 25.4796C7 25.1278 7 24.4897 7 23.2133V4.78668Z" fill="white"/>
</g>
</svg>
