<svg width="24" height="24" viewBox="-2 -2 24 24" fill="none" xmlns="http://www.w3.org/2000/svg">
<g id="icon_rename">
<path id="Icon" d="M10.8332 5.83333H4.33317C3.39975 5.83333 2.93304 5.83333 2.57652 6.01499C2.26292 6.17478 2.00795 6.42975 1.84816 6.74335C1.6665 7.09987 1.6665 7.56658 1.6665 8.5V11.5C1.6665 12.4334 1.6665 12.9001 1.84816 13.2567C2.00795 13.5703 2.26292 13.8252 2.57652 13.985C2.93304 14.1667 3.39975 14.1667 4.33317 14.1667H10.8332M14.1665 5.83333H15.6665C16.5999 5.83333 17.0666 5.83333 17.4232 6.01499C17.7368 6.17478 17.9917 6.42975 18.1515 6.74335C18.3332 7.09987 18.3332 7.56658 18.3332 8.5V11.5C18.3332 12.4334 18.3332 12.9001 18.1515 13.2567C17.9917 13.5703 17.7368 13.8252 17.4232 13.985C17.0666 14.1667 16.5999 14.1667 15.6665 14.1667H14.1665M14.1665 17.5L14.1665 2.5M16.2498 2.50001L12.0832 2.5M16.2498 17.5L12.0832 17.5" stroke="#007BFB" stroke-width="1.6" stroke-linecap="round" stroke-linejoin="round"/>
</g>
</svg>
