<svg width="24" height="24" viewBox="0 0 24 24" fill="none" xmlns="http://www.w3.org/2000/svg">
<g id="icon_3x3">
<g id="Group 1997">
<path id="Icon" d="M6.08571 3H3.91429C3.59426 3 3.43424 3 3.31201 3.06228C3.20448 3.11707 3.11707 3.20448 3.06228 3.31201C3 3.43424 3 3.59426 3 3.91429V6.08571C3 6.40574 3 6.56576 3.06228 6.68799C3.11707 6.79552 3.20448 6.88293 3.31201 6.93772C3.43424 7 3.59426 7 3.91429 7H6.08571C6.40574 7 6.56576 7 6.68799 6.93772C6.79552 6.88293 6.88293 6.79552 6.93772 6.68799C7 6.56576 7 6.40574 7 6.08571V3.91429C7 3.59426 7 3.43424 6.93772 3.31201C6.88293 3.20448 6.79552 3.11707 6.68799 3.06228C6.56576 3 6.40574 3 6.08571 3Z" stroke="#007BFB" stroke-width="2" stroke-linecap="round" stroke-linejoin="round"/>
<path id="Icon_2" d="M13.0857 3H10.9143C10.5943 3 10.4342 3 10.312 3.06228C10.2045 3.11707 10.1171 3.20448 10.0623 3.31201C10 3.43424 10 3.59426 10 3.91429V6.08571C10 6.40574 10 6.56576 10.0623 6.68799C10.1171 6.79552 10.2045 6.88293 10.312 6.93772C10.4342 7 10.5943 7 10.9143 7H13.0857C13.4057 7 13.5658 7 13.688 6.93772C13.7955 6.88293 13.8829 6.79552 13.9377 6.68799C14 6.56576 14 6.40574 14 6.08571V3.91429C14 3.59426 14 3.43424 13.9377 3.31201C13.8829 3.20448 13.7955 3.11707 13.688 3.06228C13.5658 3 13.4057 3 13.0857 3Z" stroke="#007BFB" stroke-width="2" stroke-linecap="round" stroke-linejoin="round"/>
<path id="Icon_3" d="M20.0857 3H17.9143C17.5943 3 17.4342 3 17.312 3.06228C17.2045 3.11707 17.1171 3.20448 17.0623 3.31201C17 3.43424 17 3.59426 17 3.91429V6.08571C17 6.40574 17 6.56576 17.0623 6.68799C17.1171 6.79552 17.2045 6.88293 17.312 6.93772C17.4342 7 17.5943 7 17.9143 7H20.0857C20.4057 7 20.5658 7 20.688 6.93772C20.7955 6.88293 20.8829 6.79552 20.9377 6.68799C21 6.56576 21 6.40574 21 6.08571V3.91429C21 3.59426 21 3.43424 20.9377 3.31201C20.8829 3.20448 20.7955 3.11707 20.688 3.06228C20.5658 3 20.4057 3 20.0857 3Z" stroke="#007BFB" stroke-width="2" stroke-linecap="round" stroke-linejoin="round"/>
</g>
<g id="Group 1998">
<path id="Icon_4" d="M6.08571 10H3.91429C3.59426 10 3.43424 10 3.31201 10.0623C3.20448 10.1171 3.11707 10.2045 3.06228 10.312C3 10.4342 3 10.5943 3 10.9143V13.0857C3 13.4057 3 13.5658 3.06228 13.688C3.11707 13.7955 3.20448 13.8829 3.31201 13.9377C3.43424 14 3.59426 14 3.91429 14H6.08571C6.40574 14 6.56576 14 6.68799 13.9377C6.79552 13.8829 6.88293 13.7955 6.93772 13.688C7 13.5658 7 13.4057 7 13.0857V10.9143C7 10.5943 7 10.4342 6.93772 10.312C6.88293 10.2045 6.79552 10.1171 6.68799 10.0623C6.56576 10 6.40574 10 6.08571 10Z" stroke="#007BFB" stroke-width="2" stroke-linecap="round" stroke-linejoin="round"/>
<path id="Icon_5" d="M13.0857 10H10.9143C10.5943 10 10.4342 10 10.312 10.0623C10.2045 10.1171 10.1171 10.2045 10.0623 10.312C10 10.4342 10 10.5943 10 10.9143V13.0857C10 13.4057 10 13.5658 10.0623 13.688C10.1171 13.7955 10.2045 13.8829 10.312 13.9377C10.4342 14 10.5943 14 10.9143 14H13.0857C13.4057 14 13.5658 14 13.688 13.9377C13.7955 13.8829 13.8829 13.7955 13.9377 13.688C14 13.5658 14 13.4057 14 13.0857V10.9143C14 10.5943 14 10.4342 13.9377 10.312C13.8829 10.2045 13.7955 10.1171 13.688 10.0623C13.5658 10 13.4057 10 13.0857 10Z" stroke="#007BFB" stroke-width="2" stroke-linecap="round" stroke-linejoin="round"/>
<path id="Icon_6" d="M20.0857 10H17.9143C17.5943 10 17.4342 10 17.312 10.0623C17.2045 10.1171 17.1171 10.2045 17.0623 10.312C17 10.4342 17 10.5943 17 10.9143V13.0857C17 13.4057 17 13.5658 17.0623 13.688C17.1171 13.7955 17.2045 13.8829 17.312 13.9377C17.4342 14 17.5943 14 17.9143 14H20.0857C20.4057 14 20.5658 14 20.688 13.9377C20.7955 13.8829 20.8829 13.7955 20.9377 13.688C21 13.5658 21 13.4057 21 13.0857V10.9143C21 10.5943 21 10.4342 20.9377 10.312C20.8829 10.2045 20.7955 10.1171 20.688 10.0623C20.5658 10 20.4057 10 20.0857 10Z" stroke="#007BFB" stroke-width="2" stroke-linecap="round" stroke-linejoin="round"/>
</g>
<g id="Group 1999">
<path id="Icon_7" d="M6.08571 17H3.91429C3.59426 17 3.43424 17 3.31201 17.0623C3.20448 17.1171 3.11707 17.2045 3.06228 17.312C3 17.4342 3 17.5943 3 17.9143V20.0857C3 20.4057 3 20.5658 3.06228 20.688C3.11707 20.7955 3.20448 20.8829 3.31201 20.9377C3.43424 21 3.59426 21 3.91429 21H6.08571C6.40574 21 6.56576 21 6.68799 20.9377C6.79552 20.8829 6.88293 20.7955 6.93772 20.688C7 20.5658 7 20.4057 7 20.0857V17.9143C7 17.5943 7 17.4342 6.93772 17.312C6.88293 17.2045 6.79552 17.1171 6.68799 17.0623C6.56576 17 6.40574 17 6.08571 17Z" stroke="#007BFB" stroke-width="2" stroke-linecap="round" stroke-linejoin="round"/>
<path id="Icon_8" d="M13.0857 17H10.9143C10.5943 17 10.4342 17 10.312 17.0623C10.2045 17.1171 10.1171 17.2045 10.0623 17.312C10 17.4342 10 17.5943 10 17.9143V20.0857C10 20.4057 10 20.5658 10.0623 20.688C10.1171 20.7955 10.2045 20.8829 10.312 20.9377C10.4342 21 10.5943 21 10.9143 21H13.0857C13.4057 21 13.5658 21 13.688 20.9377C13.7955 20.8829 13.8829 20.7955 13.9377 20.688C14 20.5658 14 20.4057 14 20.0857V17.9143C14 17.5943 14 17.4342 13.9377 17.312C13.8829 17.2045 13.7955 17.1171 13.688 17.0623C13.5658 17 13.4057 17 13.0857 17Z" stroke="#007BFB" stroke-width="2" stroke-linecap="round" stroke-linejoin="round"/>
<path id="Icon_9" d="M20.0857 17H17.9143C17.5943 17 17.4342 17 17.312 17.0623C17.2045 17.1171 17.1171 17.2045 17.0623 17.312C17 17.4342 17 17.5943 17 17.9143V20.0857C17 20.4057 17 20.5658 17.0623 20.688C17.1171 20.7955 17.2045 20.8829 17.312 20.9377C17.4342 21 17.5943 21 17.9143 21H20.0857C20.4057 21 20.5658 21 20.688 20.9377C20.7955 20.8829 20.8829 20.7955 20.9377 20.688C21 20.5658 21 20.4057 21 20.0857V17.9143C21 17.5943 21 17.4342 20.9377 17.312C20.8829 17.2045 20.7955 17.1171 20.688 17.0623C20.5658 17 20.4057 17 20.0857 17Z" stroke="#007BFB" stroke-width="2" stroke-linecap="round" stroke-linejoin="round"/>
</g>
</g>
</svg>
