<svg width="111" height="37" viewBox="0 0 111 37" fill="none" xmlns="http://www.w3.org/2000/svg">
<g id="logo_svideo">
<g id="S.VIDEO">
<path d="M0 14.9437H3.71337C3.95102 16.8169 5.92654 18.0423 8.54075 18.0423C11.1253 18.0423 12.9225 16.831 12.9225 15.1408C12.9225 13.6761 11.8234 12.831 9.12003 12.2254L6.34243 11.6056C2.39141 10.7465 0.519872 8.94366 0.519872 6.04225C0.519872 2.43662 3.8322 0 8.49619 0C13.2196 0 16.3388 2.42254 16.4279 6H12.774C12.5957 4.09859 10.9173 2.95775 8.46648 2.95775C6.04536 2.95775 4.41148 4.08451 4.41148 5.77465C4.41148 7.12676 5.49578 7.91549 8.12485 8.50704L10.5905 9.04225C14.9426 9.98592 16.7844 11.6901 16.7844 14.7183C16.7844 18.5775 13.5167 21 8.3328 21C3.40145 21 0.163388 18.6901 0 14.9437Z" fill="#007BFB"/>
<path d="M21.894 20.8169C20.6909 20.8169 19.7551 19.9296 19.7551 18.7887C19.7551 17.662 20.6909 16.7606 21.894 16.7606C23.0823 16.7606 24.0181 17.662 24.0181 18.7887C24.0181 19.9296 23.0823 20.8169 21.894 20.8169Z" fill="#007BFB"/>
<path d="M35.782 20.662H31.3854L23.9289 0.338028H28.1473L33.5837 16.7606H33.6728L39.1092 0.338028H43.2385L35.782 20.662Z" fill="#007BFB"/>
<path d="M49.3581 20.662H45.5259V0.338028H49.3581V20.662Z" fill="#007BFB"/>
<path d="M53.1309 0.338028H60.9587C67.3605 0.338028 71.1481 4.01408 71.1481 10.4507C71.1481 16.8873 67.3754 20.662 60.9587 20.662H53.1309V0.338028ZM56.9631 3.40845V17.5915H60.5576C64.8651 17.5915 67.2417 15.0986 67.2417 10.4648C67.2417 5.91549 64.8354 3.40845 60.5576 3.40845H56.9631Z" fill="#007BFB"/>
<path d="M88.0662 17.5915V20.662H74.1931V0.338028H88.0662V3.40845H78.0253V8.90141H87.5167V11.7887H78.0253V17.5915H88.0662Z" fill="#007BFB"/>
<path d="M100.84 0C107.079 0 111 4.04225 111 10.507C111 16.9718 107.079 21 100.84 21C94.5869 21 90.6656 16.9718 90.6656 10.507C90.6656 4.04225 94.5869 0 100.84 0ZM100.84 3.09859C97.008 3.09859 94.5869 5.97183 94.5869 10.507C94.5869 15.0282 97.008 17.9014 100.84 17.9014C104.658 17.9014 107.094 15.0282 107.094 10.507C107.094 5.97183 104.658 3.09859 100.84 3.09859Z" fill="#007BFB"/>
</g>
<g id="&#208;&#157;&#208;&#176; &#209;&#129;&#208;&#184;&#209;&#129;&#209;&#130;&#208;&#181;&#208;&#188;&#208;&#181; &#208;&#156;&#208;&#144;&#208;&#175;&#208;&#154;">
<path d="M8.65985 36.8891H7.463V32.8419H2.19685V36.8891H1V28H2.19685V31.8439H7.463V28H8.65985V36.8891Z" fill="#8C94A8"/>
<path d="M12.7557 36.0883C13.8462 36.0883 14.684 35.3799 14.684 34.4559V33.9322L12.8355 34.037C11.9047 34.0924 11.3727 34.4743 11.3727 35.078C11.3727 35.6879 11.9246 36.0883 12.7557 36.0883ZM12.4964 37C11.1201 37 10.1958 36.23 10.1958 35.078C10.1958 33.9815 11.1068 33.2916 12.7026 33.2053L14.684 33.1006V32.5647C14.684 31.7823 14.1255 31.3142 13.168 31.3142C12.277 31.3142 11.7185 31.7023 11.5722 32.3306H10.4551C10.5349 31.2218 11.5589 30.3717 13.1946 30.3717C14.817 30.3717 15.841 31.1848 15.841 32.46V36.8891H14.7439V35.7864H14.7173C14.305 36.5195 13.4273 37 12.4964 37Z" fill="#8C94A8"/>
<path d="M25.9544 32.4538H24.8107C24.6112 31.8378 24.0461 31.3142 23.0686 31.3142C21.8651 31.3142 21.0739 32.2567 21.0739 33.6858C21.0739 35.152 21.8784 36.0575 23.0819 36.0575C23.9995 36.0575 24.6046 35.6386 24.824 34.9302H25.9677C25.7416 36.1437 24.6312 37 23.0753 37C21.1537 37 19.897 35.7248 19.897 33.6858C19.897 31.6899 21.147 30.3717 23.062 30.3717C24.7309 30.3717 25.7482 31.3634 25.9544 32.4538Z" fill="#8C94A8"/>
<path d="M28.3148 36.8891H27.1712V30.4825H28.3148V35.2505H28.368L31.8256 30.4825H32.9693V36.8891H31.8256V32.1212H31.7724L28.3148 36.8891Z" fill="#8C94A8"/>
<path d="M40.3166 32.4538H39.1729C38.9735 31.8378 38.4083 31.3142 37.4309 31.3142C36.2274 31.3142 35.4361 32.2567 35.4361 33.6858C35.4361 35.152 36.2407 36.0575 37.4442 36.0575C38.3617 36.0575 38.9668 35.6386 39.1862 34.9302H40.3299C40.1038 36.1437 38.9934 37 37.4375 37C35.5159 37 34.2592 35.7248 34.2592 33.6858C34.2592 31.6899 35.5092 30.3717 37.4242 30.3717C39.0931 30.3717 40.1105 31.3634 40.3166 32.4538Z" fill="#8C94A8"/>
<path d="M46.4604 30.4825V31.3634H44.2263V36.8891H43.0827V31.3634H40.8485V30.4825H46.4604Z" fill="#8C94A8"/>
<path d="M50.1773 31.3018C49.0935 31.3018 48.3355 32.0719 48.2624 33.1376H52.0192C51.9926 32.0657 51.2678 31.3018 50.1773 31.3018ZM51.9926 35.0534H53.1296C52.9301 36.1745 51.7598 37 50.2505 37C48.269 37 47.0655 35.7248 47.0655 33.7105C47.0655 31.7207 48.289 30.3717 50.1973 30.3717C52.0657 30.3717 53.216 31.6283 53.216 33.5688V33.9754H48.2557V34.037C48.2557 35.2628 49.0337 36.0698 50.2771 36.0698C51.1548 36.0698 51.7997 35.6571 51.9926 35.0534Z" fill="#8C94A8"/>
<path d="M55.643 36.8891H54.4993V30.4825H55.9023L58.3625 35.4723H58.4157L60.8892 30.4825H62.2389V36.8891H61.0886V32.3429H61.0421L58.808 36.7043H57.9236L55.6895 32.3429H55.643V36.8891Z" fill="#8C94A8"/>
<path d="M66.6407 31.3018C65.5569 31.3018 64.7989 32.0719 64.7257 33.1376H68.4825C68.4559 32.0657 67.7312 31.3018 66.6407 31.3018ZM68.4559 35.0534H69.5929C69.3935 36.1745 68.2232 37 66.7138 37C64.7324 37 63.5289 35.7248 63.5289 33.7105C63.5289 31.7207 64.7523 30.3717 66.6606 30.3717C68.5291 30.3717 69.6794 31.6283 69.6794 33.5688V33.9754H64.7191V34.037C64.7191 35.2628 65.497 36.0698 66.7404 36.0698C67.6181 36.0698 68.2631 35.6571 68.4559 35.0534Z" fill="#8C94A8"/>
<path d="M83.3966 36.8891H82.2796V30.039H82.233L79.1744 36.8275H78.1637L75.1051 30.039H75.0586V36.8891H73.9415V28H75.3312L78.6425 35.4168H78.6957L82.007 28H83.3966V36.8891Z" fill="#8C94A8"/>
<path d="M91.6283 36.8891L90.6642 34.345H86.8476L85.8834 36.8891H84.6267L88.1641 28H89.3476L92.885 36.8891H91.6283ZM88.7359 29.3491L87.2 33.4025H90.3118L88.7758 29.3491H88.7359Z" fill="#8C94A8"/>
<path d="M99.481 32.4723V28.9979H97.3666C95.9902 28.9979 95.2122 29.6201 95.2122 30.729C95.2122 31.8439 95.9968 32.4723 97.3666 32.4723H99.481ZM97.5527 33.4702L94.9064 36.8891H93.4834L96.2362 33.3347C94.8798 33.0452 93.9821 32.0534 93.9821 30.729C93.9821 29.1211 95.2521 28 97.054 28H100.678V36.8891H99.481V33.4702H97.5527Z" fill="#8C94A8"/>
<path d="M105.193 32.2505L110 36.8891H108.358L103.929 32.5708H103.876V36.8891H102.679V28H103.876V32.0965H103.929L108.052 28H109.555L105.193 32.2505Z" fill="#8C94A8"/>
</g>
</g>
</svg>
