<svg width="66" height="16" viewBox="0 0 66 16" fill="none" xmlns="http://www.w3.org/2000/svg">
<g id="logo_mayak">
<path d="M14.8708 0H15.9577V16H12.6229V7.61905L8.52228 12.5714H7.43538L3.33481 7.61905V16H0V0H1.0869L7.97883 8.5L14.8708 0Z" fill="#1E1E1E"/>
<path d="M30.2319 16L29.3179 13.9524H22.6483L21.7343 16H18.1525L25.4397 0H26.5513L33.8137 16H30.2319ZM28.1569 11.3095L25.9831 6L23.8093 11.3095H28.1569Z" fill="#1E1E1E"/>
<path d="M42.1417 0.285715H47.8973V16H44.5625V10.7857H42.4381L38.6339 16H35.0521L39.2268 10.2381C38.1893 9.80952 37.3659 9.18254 36.7566 8.35714C36.1637 7.51587 35.8673 6.57143 35.8673 5.52381C35.8673 3.96825 36.4437 2.70635 37.5965 1.7381C38.7657 0.769842 40.2808 0.285715 42.1417 0.285715ZM44.5625 7.95238V3.11905H42.0429C41.2195 3.11905 40.5525 3.34127 40.042 3.78572C39.5315 4.23016 39.2762 4.81746 39.2762 5.54762C39.2762 6.27778 39.5315 6.86508 40.042 7.30952C40.5525 7.7381 41.2195 7.95238 42.0429 7.95238H44.5625Z" fill="#1E1E1E"/>
<path d="M66 16H61.9735L54.9828 7.80953V16H51.648V0.285715H54.9828V7.57143L61.2078 0.285715H65.1848L58.9352 7.69048L66 16Z" fill="#1E1E1E"/>
</g>
</svg>
